{"title":"20140928 -Share The Story - I'm All In - by Darren Embree.mp4","uid":11128543,"size":221433822,"categoryP":"video","categoryS":"other","magnet":"?xt=urn:btih:0a6fa1302d34627eff962998dcb1ba041f8da63b&amp;dn=20140928+-Share+The+Story+-+I%27m+All+In+-+by+Darren+Embree.mp4&amp;tr=udp%3A%2F%2Ftracker.openbittorrent.com%3A80&amp;tr=udp%3A%2F%2Fopen.demonii.com%3A1337&amp;tr=udp%3A%2F%2Ftracker.coppersurfer.tk%3A6969&amp;tr=udp%3A%2F%2Fexodus.desync.com%3A6969","seeders":2,"leechers":0,"uploader":"davidrpeet","files":1,"time":1412007079,"description":"Share The Story: I'm All In - by Darren Embree\nWeekly sermons from CrossRoads Church in Decatur, Texas.\n\n\nGeneral\nFormat                                   : MPEG-4\nFormat profile                           : Base Media / Version 2\nCodec ID                                 : mp42\nFile size                                : 211 MiB\nDuration                                 : 37mn 17s\nOverall bit rate mode                    : Variable\nOverall bit rate                         : 792 Kbps\nMovie name                               : Share The Story: I'm All In\nAlbum                                    : CrossRoads Church \nAlbum/Performer                          : Darren Embree\nPerformer                                : Darren Embree\nComposer                                 : http://crossroadspeople.com/\nGenre                                    : Speech\nRecorded date                            : 2014\nEncoded date                             : UTC 2014-09-29 06:12:29\nTagged date                              : UTC 2014-09-29 06:12:29\nCover                                    : Yes\nComment                                  : CrossRoads To Go Video Podcasts\n\nVideo\nID                                       : 1\nFormat                                   : AVC\nFormat/Info                              : Advanced Video Codec\nFormat profile                           : &lt;a class=&quot;__cf_email__&quot; href=&quot;/cdn-cgi/l/email-protection&quot; data-cfemail=&quot;337b5a545b737f001d02&quot;&gt;[email&amp;#160;protected]&lt;/a&gt;&lt;script data-cfhash='f9e31' type=&quot;text/javascript&quot;&gt;\n/* &lt;![CDATA[ */!function(){try{var t=&quot;currentScript&quot;in document?document.currentScript:function(){for(var t=document.getElementsByTagName(&quot;script&quot;),e=t.length;e--;)if(t[e].getAttribute(&quot;data-cfhash&quot;))return t[e]}();if(t&amp;&amp;t.previousSibling){var e,r,n,i,c=t.previousSibling,a=c.getAttribute(&quot;data-cfemail&quot;);if(a){for(e=&quot;&quot;,r=parseInt(a.substr(0,2),16),n=2;a.length-n;n+=2)i=parseInt(a.substr(n,2),16)^r,e+=String.fromCharCode(i);e=document.createTextNode(e),c.parentNode.replaceChild(e,c)}t.parentNode.removeChild(t);}}catch(u){}}()/* ]]&gt; */&lt;/script&gt;\nFormat settings, CABAC                   : Yes\nFormat settings, ReFrames                : 4 frames\nCodec ID                                 : avc1\nCodec ID/Info                            : Advanced Video Coding\nDuration                                 : 37mn 17s\nBit rate                                 : 684 Kbps\nWidth                                    : 640 pixels\nHeight                                   : 360 pixels\nDisplay aspect ratio                     : 16:9\nFrame rate mode                          : Constant\nFrame rate                               : 29.970 fps\nColor space                              : YUV\nChroma subsampling                       : 4:2:0\nBit depth                                : 8 bits\nScan type                                : Progressive\nBits/(Pixel*Frame)                       : 0.099\nStream size                              : 182 MiB (86%)\nWriting library                          : x264 core 142 r2453 ea0ca51\nEncoded date                             : UTC 2014-09-29 06:12:29\nTagged date                              : UTC 2014-09-29 06:12:29\n\nAudio\nID                                       : 2\nFormat                                   : AAC\nFormat/Info                              : Advanced Audio Codec\nFormat profile                           : LC\nCodec ID                                 : 40\nDuration                                 : 37mn 17s\nBit rate mode                            : Variable\nBit rate                                 : 103 Kbps\nChannel(s)                               : 2 channels\nChannel positions                        : Front: L R\nSampling rate                            : 48.0 KHz\nCompression mode                         : Lossy\nStream size                              : 27.4 MiB (13%)\nEncoded date                             : UTC 2014-09-29 06:12:29\nTagged date                              : UTC 2014-09-29 06:12:29\n\n","torrent":{"xt":"urn:btih:0a6fa1302d34627eff962998dcb1ba041f8da63b","amp;dn":"20140928+-Share+The+Story+-+I%27m+All+In+-+by+Darren+Embree.mp4","amp;tr":["udp%3A%2F%2Ftracker.openbittorrent.com%3A80","udp%3A%2F%2Fopen.demonii.com%3A1337","udp%3A%2F%2Ftracker.coppersurfer.tk%3A6969","udp%3A%2F%2Fexodus.desync.com%3A6969"],"infoHash":"0a6fa1302d34627eff962998dcb1ba041f8da63b","infoHashBuffer":{"type":"Buffer","data":[10,111,161,48,45,52,98,126,255,150,41,152,220,177,186,4,31,141,166,59]},"announce":[],"urlList":[]}}